# Blender 4.5.3 LTS
# www.blender.org
mtllib bufka.mtl
o cube
v 0.250000 0.500000 0.250000
v 0.250000 0.500000 -0.250000
v 0.250000 0.000000 0.250000
v 0.250000 -0.000000 -0.250000
v -0.250000 0.500000 -0.250000
v -0.250000 0.500000 0.250000
v -0.250000 -0.000000 -0.250000
v -0.250000 0.000000 0.250000
vn -0.0000 -0.0000 -1.0000
vn 1.0000 -0.0000 -0.0000
vn -0.0000 -0.0000 1.0000
vn -1.0000 -0.0000 -0.0000
vn -0.0000 1.0000 -0.0000
vn -0.0000 -1.0000 -0.0000
vt 0.750000 0.000000
vt 0.500000 0.500000
vt 0.500000 0.000000
vt 0.250000 0.500000
vt 0.250000 0.000000
vt 1.000000 0.000000
vt 0.750000 0.500000
vt 0.000000 0.500000
vt 0.000000 0.000000
vt 0.250000 1.000000
vt 0.500000 1.000000
vt 1.000000 0.500000
vt 0.750000 1.000000
s 1
usemtl m_7325025b-4fd4-93ca-dfd5-aa83b2511304.004
f 7/1/1 2/2/1 4/3/1
f 4/3/2 1/4/2 3/5/2
f 3/6/3 6/7/3 8/1/3
f 8/5/4 5/8/4 7/9/4
f 1/2/5 5/10/5 6/4/5
f 4/7/6 8/11/6 7/2/6
f 7/1/1 5/7/1 2/2/1
f 4/3/2 2/2/2 1/4/2
f 3/6/3 1/12/3 6/7/3
f 8/5/4 6/4/4 5/8/4
f 1/2/5 2/11/5 5/10/5
f 4/7/6 3/13/6 8/11/6
