# Blender 4.5.0
# www.blender.org
mtllib case.mtl
o cube.019
v 0.375000 1.000000 0.437500
v 0.375000 1.000000 0.375000
v 0.375000 0.875000 0.437500
v 0.375000 0.875000 0.375000
v -0.375000 1.000000 0.375000
v -0.375000 1.000000 0.437500
v -0.375000 0.875000 0.375000
v -0.375000 0.875000 0.437500
v 0.500000 0.125000 0.375000
v 0.500000 0.125000 -0.375000
v 0.500000 0.000000 0.375000
v 0.500000 -0.000000 -0.375000
v 0.437500 0.125000 -0.375000
v 0.437500 0.125000 0.375000
v 0.437500 -0.000000 -0.375000
v 0.437500 0.000000 0.375000
v -0.437500 0.125000 0.375000
v -0.437500 0.125000 -0.375000
v -0.437500 0.000000 0.375000
v -0.437500 -0.000000 -0.375000
v -0.500000 0.125000 -0.375000
v -0.500000 0.125000 0.375000
v -0.500000 -0.000000 -0.375000
v -0.500000 0.000000 0.375000
v 0.375000 0.125000 -0.437500
v 0.375000 0.125000 -0.500000
v 0.375000 -0.000000 -0.437500
v 0.375000 -0.000000 -0.500000
v -0.375000 0.125000 -0.500000
v -0.375000 0.125000 -0.437500
v -0.375000 -0.000000 -0.500000
v -0.375000 -0.000000 -0.437500
v 0.375000 0.125000 0.500000
v 0.375000 0.125000 0.437500
v 0.375000 0.000000 0.500000
v 0.375000 0.000000 0.437500
v -0.375000 0.125000 0.437500
v -0.375000 0.125000 0.500000
v -0.375000 0.000000 0.437500
v -0.375000 0.000000 0.500000
v 0.500000 1.000000 0.375000
v 0.500000 1.000000 -0.375000
v 0.500000 0.875000 0.375000
v 0.500000 0.875000 -0.375000
v 0.437500 1.000000 -0.375000
v 0.437500 1.000000 0.375000
v 0.437500 0.875000 -0.375000
v 0.437500 0.875000 0.375000
v 0.375000 1.000000 -0.437500
v 0.375000 1.000000 -0.500000
v 0.375000 0.875000 -0.437500
v 0.375000 0.875000 -0.500000
v -0.375000 1.000000 -0.500000
v -0.375000 1.000000 -0.437500
v -0.375000 0.875000 -0.500000
v -0.375000 0.875000 -0.437500
v 0.375000 1.000000 0.500000
v 0.375000 1.000000 0.437500
v 0.375000 0.875000 0.500000
v 0.375000 0.875000 0.437500
v -0.375000 1.000000 0.437500
v -0.375000 1.000000 0.500000
v -0.375000 0.875000 0.437500
v -0.375000 0.875000 0.500000
v -0.437500 1.000000 0.375000
v -0.437500 1.000000 -0.375000
v -0.437500 0.875000 0.375000
v -0.437500 0.875000 -0.375000
v -0.500000 1.000000 -0.375000
v -0.500000 1.000000 0.375000
v -0.500000 0.875000 -0.375000
v -0.500000 0.875000 0.375000
v -0.375000 1.000000 -0.375000
v -0.375000 1.000000 -0.500000
v -0.375000 -0.000000 -0.375000
v -0.375000 -0.000000 -0.500000
v -0.500000 1.000000 -0.500000
v -0.500000 1.000000 -0.375000
v -0.500000 -0.000000 -0.500000
v -0.500000 -0.000000 -0.375000
v 0.500000 1.000000 -0.375000
v 0.500000 1.000000 -0.500000
v 0.500000 -0.000000 -0.375000
v 0.500000 -0.000000 -0.500000
v 0.375000 1.000000 -0.500000
v 0.375000 1.000000 -0.375000
v 0.375000 -0.000000 -0.500000
v 0.375000 -0.000000 -0.375000
v -0.375000 1.000000 0.500000
v -0.375000 1.000000 0.375000
v -0.375000 0.000000 0.500000
v -0.375000 0.000000 0.375000
v -0.500000 1.000000 0.375000
v -0.500000 1.000000 0.500000
v -0.500000 0.000000 0.375000
v -0.500000 0.000000 0.500000
v 0.500000 1.000000 0.500000
v 0.500000 1.000000 0.375000
v 0.500000 0.000000 0.500000
v 0.500000 0.000000 0.375000
v 0.375000 1.000000 0.375000
v 0.375000 1.000000 0.500000
v 0.375000 0.000000 0.375000
v 0.375000 0.000000 0.500000
v -0.375000 0.125000 0.375000
v -0.375000 0.125000 -0.375000
v -0.375000 0.000000 0.375000
v -0.375000 -0.000000 -0.375000
v -0.437500 0.125000 -0.375000
v -0.437500 0.125000 0.375000
v -0.437500 -0.000000 -0.375000
v -0.437500 0.000000 0.375000
v 0.437500 0.125000 0.375000
v 0.437500 0.125000 -0.375000
v 0.437500 0.000000 0.375000
v 0.437500 -0.000000 -0.375000
v 0.375000 0.125000 -0.375000
v 0.375000 0.125000 0.375000
v 0.375000 -0.000000 -0.375000
v 0.375000 0.000000 0.375000
v 0.375000 0.125000 -0.375000
v 0.375000 0.125000 -0.437500
v 0.375000 -0.000000 -0.375000
v 0.375000 -0.000000 -0.437500
v -0.375000 0.125000 -0.437500
v -0.375000 0.125000 -0.375000
v -0.375000 -0.000000 -0.437500
v -0.375000 -0.000000 -0.375000
v 0.375000 0.125000 0.437500
v 0.375000 0.125000 0.375000
v 0.375000 0.000000 0.437500
v 0.375000 0.000000 0.375000
v -0.375000 0.125000 0.375000
v -0.375000 0.125000 0.437500
v -0.375000 0.000000 0.375000
v -0.375000 0.000000 0.437500
v -0.375000 1.000000 0.375000
v -0.375000 1.000000 -0.375000
v -0.375000 0.875000 0.375000
v -0.375000 0.875000 -0.375000
v -0.437500 1.000000 -0.375000
v -0.437500 1.000000 0.375000
v -0.437500 0.875000 -0.375000
v -0.437500 0.875000 0.375000
v 0.437500 1.000000 0.375000
v 0.437500 1.000000 -0.375000
v 0.437500 0.875000 0.375000
v 0.437500 0.875000 -0.375000
v 0.375000 1.000000 -0.375000
v 0.375000 1.000000 0.375000
v 0.375000 0.875000 -0.375000
v 0.375000 0.875000 0.375000
v 0.375000 1.000000 -0.375000
v 0.375000 1.000000 -0.437500
v 0.375000 0.875000 -0.375000
v 0.375000 0.875000 -0.437500
v -0.375000 1.000000 -0.437500
v -0.375000 1.000000 -0.375000
v -0.375000 0.875000 -0.437500
v -0.375000 0.875000 -0.375000
vn -0.0000 -0.0000 -1.0000
vn 1.0000 -0.0000 -0.0000
vn -0.0000 -0.0000 1.0000
vn -1.0000 -0.0000 -0.0000
vn -0.0000 1.0000 -0.0000
vn -0.0000 -1.0000 -0.0000
vt 0.875000 0.000000
vt 0.125000 0.125000
vt 0.125000 0.000000
vt 0.062500 0.875000
vt 0.000000 1.000000
vt 0.000000 0.875000
vt 0.750000 0.875000
vt 0.875000 0.875000
vt 0.125000 0.937500
vt 0.125000 0.875000
vt 0.875000 0.937500
vt 0.125000 1.000000
vt 0.937500 0.125000
vt 0.875000 0.125000
vt 0.062500 0.250000
vt 0.000000 0.250000
vt 0.062500 0.125000
vt 0.750000 0.937500
vt 0.000000 0.937500
vt 0.875000 0.062500
vt 0.125000 0.062500
vt 0.812500 0.875000
vt 0.062500 1.000000
vt 0.000000 0.125000
vt 0.937500 0.875000
vt 0.187500 1.000000
vt 0.187500 0.875000
vt 1.000000 0.000000
vt 0.875000 1.000000
vt 0.000000 0.000000
vt 1.000000 0.875000
vt 1.000000 0.125000
vt 0.062500 0.937500
vt 0.750000 1.000000
vt 0.812500 1.000000
vt 0.937500 1.000000
vt 1.000000 1.000000
vt 0.812500 0.937500
s 1
usemtl m_ee032e9a-d7b6-134e-3862-c67bcbdb9d98
f 7/1/1 2/2/1 4/3/1
f 4/4/2 1/5/2 3/6/2
f 3/7/3 6/5/3 8/6/3
f 8/4/4 5/5/4 7/6/4
f 1/8/5 5/9/5 6/10/5
f 4/11/6 8/12/6 7/9/6
f 15/4/1 10/5/1 12/6/1
f 12/1/2 9/2/2 11/3/2
f 11/4/3 14/5/3 16/6/3
f 16/7/4 13/5/4 15/6/4
f 9/13/5 13/8/5 14/14/5
f 12/15/6 16/5/6 15/16/6
f 23/4/1 18/5/1 20/6/1
f 20/7/2 17/5/2 19/6/2
f 19/4/3 22/5/3 24/6/3
f 24/1/4 21/2/4 23/3/4
f 17/2/5 21/4/5 22/17/5
f 20/15/6 24/5/6 23/16/6
f 31/1/1 26/2/1 28/3/1
f 28/4/2 25/5/2 27/6/2
f 27/7/3 30/5/3 32/6/3
f 32/4/4 29/5/4 31/6/4
f 25/8/5 29/9/5 30/10/5
f 28/18/6 32/5/6 31/19/6
f 39/7/1 34/5/1 36/6/1
f 36/4/2 33/5/2 35/6/2
f 35/1/3 38/2/3 40/3/3
f 40/4/4 37/5/4 39/6/4
f 33/20/5 37/2/5 38/21/5
f 36/1/6 40/21/6 39/3/6
f 47/4/1 42/5/1 44/6/1
f 44/22/2 41/23/2 43/4/2
f 43/4/3 46/5/3 48/6/3
f 48/7/4 45/5/4 47/6/4
f 41/17/5 45/6/5 46/24/5
f 44/13/6 48/8/6 47/14/6
f 55/8/1 50/12/1 52/10/1
f 52/4/2 49/5/2 51/6/2
f 51/7/3 54/5/3 56/6/3
f 56/4/4 53/5/4 55/6/4
f 49/18/5 53/5/5 54/19/5
f 52/20/6 56/2/6 55/21/6
f 63/25/1 58/26/1 60/27/1
f 60/4/2 57/5/2 59/6/2
f 59/8/3 62/12/3 64/10/3
f 64/4/4 61/5/4 63/6/4
f 57/11/5 61/12/5 62/9/5
f 60/20/6 64/2/6 63/21/6
f 71/4/1 66/5/1 68/6/1
f 68/7/2 65/5/2 67/6/2
f 67/4/3 70/5/3 72/6/3
f 72/8/4 69/12/4 71/10/4
f 65/17/5 69/6/5 70/24/5
f 68/13/6 72/8/6 71/14/6
f 79/28/1 74/29/1 76/1/1
f 76/3/2 73/5/2 75/30/2
f 75/28/3 78/29/3 80/1/3
f 80/3/4 77/5/4 79/30/4
f 73/10/5 77/5/5 78/6/5
f 76/3/6 80/24/6 79/30/6
f 87/3/1 82/5/1 84/30/1
f 84/28/2 81/29/2 83/1/2
f 83/3/3 86/5/3 88/30/3
f 88/28/4 85/29/4 87/1/4
f 81/31/5 85/29/5 86/8/5
f 84/28/6 88/14/6 87/1/6
f 95/3/1 90/5/1 92/30/1
f 92/28/2 89/29/2 91/1/2
f 91/3/3 94/5/3 96/30/3
f 96/28/4 93/29/4 95/1/4
f 89/3/5 93/24/5 94/30/5
f 92/10/6 96/5/6 95/6/6
f 103/28/1 98/29/1 100/1/1
f 100/3/2 97/5/2 99/30/2
f 99/28/3 102/29/3 104/1/3
f 104/3/4 101/5/4 103/30/4
f 97/28/5 101/14/5 102/1/5
f 100/1/6 104/32/6 103/14/6
f 111/4/1 106/5/1 108/6/1
f 108/8/2 105/12/2 107/10/2
f 107/4/3 110/5/3 112/6/3
f 112/7/4 109/5/4 111/6/4
f 105/15/5 109/5/5 110/16/5
f 108/2/6 112/4/6 111/17/6
f 119/4/1 114/5/1 116/6/1
f 116/8/2 113/12/2 115/10/2
f 115/4/3 118/5/3 120/6/3
f 120/8/4 117/12/4 119/10/4
f 113/17/5 117/6/5 118/24/5
f 116/13/6 120/8/6 119/14/6
f 127/7/1 122/5/1 124/6/1
f 124/4/2 121/5/2 123/6/2
f 123/8/3 126/12/3 128/10/3
f 128/4/4 125/5/4 127/6/4
f 121/1/5 125/21/5 126/3/5
f 124/22/6 128/33/6 127/4/6
f 135/8/1 130/12/1 132/10/1
f 132/4/2 129/5/2 131/6/2
f 131/7/3 134/5/3 136/6/3
f 136/4/4 133/5/4 135/6/4
f 129/18/5 133/5/5 134/19/5
f 132/20/6 136/2/6 135/21/6
f 143/4/1 138/5/1 140/6/1
f 140/1/2 137/2/2 139/3/2
f 139/4/3 142/5/3 144/6/3
f 144/7/4 141/5/4 143/6/4
f 137/2/5 141/4/5 142/17/5
f 140/15/6 144/5/6 143/16/6
f 151/4/1 146/5/1 148/6/1
f 148/7/2 145/5/2 147/6/2
f 147/4/3 150/5/3 152/6/3
f 152/1/4 149/2/4 151/3/4
f 145/13/5 149/8/5 150/14/5
f 148/17/6 152/6/6 151/24/6
f 159/7/1 154/5/1 156/6/1
f 156/4/2 153/5/2 155/6/2
f 155/1/3 158/2/3 160/3/3
f 160/4/4 157/5/4 159/6/4
f 153/8/5 157/9/5 158/10/5
f 156/18/6 160/5/6 159/19/6
f 7/1/1 5/14/1 2/2/1
f 4/4/2 2/23/2 1/5/2
f 3/7/3 1/34/3 6/5/3
f 8/4/4 6/23/4 5/5/4
f 1/8/5 2/11/5 5/9/5
f 4/11/6 3/29/6 8/12/6
f 15/4/1 13/23/1 10/5/1
f 12/1/2 10/14/2 9/2/2
f 11/4/3 9/23/3 14/5/3
f 16/7/4 14/34/4 13/5/4
f 9/13/5 10/25/5 13/8/5
f 12/15/6 11/23/6 16/5/6
f 23/4/1 21/23/1 18/5/1
f 20/7/2 18/34/2 17/5/2
f 19/4/3 17/23/3 22/5/3
f 24/1/4 22/14/4 21/2/4
f 17/2/5 18/10/5 21/4/5
f 20/15/6 19/23/6 24/5/6
f 31/1/1 29/14/1 26/2/1
f 28/4/2 26/23/2 25/5/2
f 27/7/3 25/34/3 30/5/3
f 32/4/4 30/23/4 29/5/4
f 25/8/5 26/11/5 29/9/5
f 28/18/6 27/34/6 32/5/6
f 39/7/1 37/34/1 34/5/1
f 36/4/2 34/23/2 33/5/2
f 35/1/3 33/14/3 38/2/3
f 40/4/4 38/23/4 37/5/4
f 33/20/5 34/14/5 37/2/5
f 36/1/6 35/20/6 40/21/6
f 47/4/1 45/23/1 42/5/1
f 44/22/2 42/35/2 41/23/2
f 43/4/3 41/23/3 46/5/3
f 48/7/4 46/34/4 45/5/4
f 41/17/5 42/4/5 45/6/5
f 44/13/6 43/25/6 48/8/6
f 55/8/1 53/29/1 50/12/1
f 52/4/2 50/23/2 49/5/2
f 51/7/3 49/34/3 54/5/3
f 56/4/4 54/23/4 53/5/4
f 49/18/5 50/34/5 53/5/5
f 52/20/6 51/14/6 56/2/6
f 63/25/1 61/36/1 58/26/1
f 60/4/2 58/23/2 57/5/2
f 59/8/3 57/29/3 62/12/3
f 64/4/4 62/23/4 61/5/4
f 57/11/5 58/29/5 61/12/5
f 60/20/6 59/14/6 64/2/6
f 71/4/1 69/23/1 66/5/1
f 68/7/2 66/34/2 65/5/2
f 67/4/3 65/23/3 70/5/3
f 72/8/4 70/29/4 69/12/4
f 65/17/5 66/4/5 69/6/5
f 68/13/6 67/25/6 72/8/6
f 79/28/1 77/37/1 74/29/1
f 76/3/2 74/12/2 73/5/2
f 75/28/3 73/37/3 78/29/3
f 80/3/4 78/12/4 77/5/4
f 73/10/5 74/12/5 77/5/5
f 76/3/6 75/2/6 80/24/6
f 87/3/1 85/12/1 82/5/1
f 84/28/2 82/37/2 81/29/2
f 83/3/3 81/12/3 86/5/3
f 88/28/4 86/37/4 85/29/4
f 81/31/5 82/37/5 85/29/5
f 84/28/6 83/32/6 88/14/6
f 95/3/1 93/12/1 90/5/1
f 92/28/2 90/37/2 89/29/2
f 91/3/3 89/12/3 94/5/3
f 96/28/4 94/37/4 93/29/4
f 89/3/5 90/2/5 93/24/5
f 92/10/6 91/12/6 96/5/6
f 103/28/1 101/37/1 98/29/1
f 100/3/2 98/12/2 97/5/2
f 99/28/3 97/37/3 102/29/3
f 104/3/4 102/12/4 101/5/4
f 97/28/5 98/32/5 101/14/5
f 100/1/6 99/28/6 104/32/6
f 111/4/1 109/23/1 106/5/1
f 108/8/2 106/29/2 105/12/2
f 107/4/3 105/23/3 110/5/3
f 112/7/4 110/34/4 109/5/4
f 105/15/5 106/23/5 109/5/5
f 108/2/6 107/10/6 112/4/6
f 119/4/1 117/23/1 114/5/1
f 116/8/2 114/29/2 113/12/2
f 115/4/3 113/23/3 118/5/3
f 120/8/4 118/29/4 117/12/4
f 113/17/5 114/4/5 117/6/5
f 116/13/6 115/25/6 120/8/6
f 127/7/1 125/34/1 122/5/1
f 124/4/2 122/23/2 121/5/2
f 123/8/3 121/29/3 126/12/3
f 128/4/4 126/23/4 125/5/4
f 121/1/5 122/20/5 125/21/5
f 124/22/6 123/38/6 128/33/6
f 135/8/1 133/29/1 130/12/1
f 132/4/2 130/23/2 129/5/2
f 131/7/3 129/34/3 134/5/3
f 136/4/4 134/23/4 133/5/4
f 129/18/5 130/34/5 133/5/5
f 132/20/6 131/14/6 136/2/6
f 143/4/1 141/23/1 138/5/1
f 140/1/2 138/14/2 137/2/2
f 139/4/3 137/23/3 142/5/3
f 144/7/4 142/34/4 141/5/4
f 137/2/5 138/10/5 141/4/5
f 140/15/6 139/23/6 144/5/6
f 151/4/1 149/23/1 146/5/1
f 148/7/2 146/34/2 145/5/2
f 147/4/3 145/23/3 150/5/3
f 152/1/4 150/14/4 149/2/4
f 145/13/5 146/25/5 149/8/5
f 148/17/6 147/4/6 152/6/6
f 159/7/1 157/34/1 154/5/1
f 156/4/2 154/23/2 153/5/2
f 155/1/3 153/14/3 158/2/3
f 160/4/4 158/23/4 157/5/4
f 153/8/5 154/11/5 157/9/5
f 156/18/6 155/34/6 160/5/6
